<svg width="32" height="26" viewBox="0 0 32 26" fill="none" xmlns="http://www.w3.org/2000/svg">
<path d="M30.625 0.660158H22.5813C20.8551 0.660158 19.1676 1.15586 17.7156 2.09102L16 3.19141L14.2844 2.09102C12.8339 1.15604 11.1445 0.659235 9.41875 0.660158H1.375C0.752734 0.660158 0.25 1.16289 0.25 1.78516V21.7539C0.25 22.3762 0.752734 22.8789 1.375 22.8789H9.41875C11.1449 22.8789 12.8324 23.3746 14.2844 24.3098L15.8453 25.3152C15.891 25.3434 15.9437 25.3609 15.9965 25.3609C16.0492 25.3609 16.102 25.3469 16.1477 25.3152L17.7086 24.3098C19.1641 23.3746 20.8551 22.8789 22.5813 22.8789H30.625C31.2473 22.8789 31.75 22.3762 31.75 21.7539V1.78516C31.75 1.16289 31.2473 0.660158 30.625 0.660158ZM12.2031 14.459C12.2031 14.6031 12.0906 14.7227 11.9535 14.7227H5.42148C5.28438 14.7227 5.17188 14.6031 5.17188 14.459V12.877C5.17188 12.7328 5.28438 12.6133 5.42148 12.6133H11.95C12.0871 12.6133 12.1996 12.7328 12.1996 12.877V14.459H12.2031ZM12.2031 9.53711C12.2031 9.68125 12.0906 9.80078 11.9535 9.80078H5.42148C5.28438 9.80078 5.17188 9.68125 5.17188 9.53711V7.95508C5.17188 7.81094 5.28438 7.69141 5.42148 7.69141H11.95C12.0871 7.69141 12.1996 7.81094 12.1996 7.95508V9.53711H12.2031ZM26.8281 14.459C26.8281 14.6031 26.7156 14.7227 26.5785 14.7227H20.0465C19.9094 14.7227 19.7969 14.6031 19.7969 14.459V12.877C19.7969 12.7328 19.9094 12.6133 20.0465 12.6133H26.575C26.7121 12.6133 26.8246 12.7328 26.8246 12.877V14.459H26.8281ZM26.8281 9.53711C26.8281 9.68125 26.7156 9.80078 26.5785 9.80078H20.0465C19.9094 9.80078 19.7969 9.68125 19.7969 9.53711V7.95508C19.7969 7.81094 19.9094 7.69141 20.0465 7.69141H26.575C26.7121 7.69141 26.8246 7.81094 26.8246 7.95508V9.53711H26.8281Z" fill="black" fill-opacity="0.85"/>
</svg>
