<svg width="30" height="35" viewBox="0 0 30 35" fill="none" xmlns="http://www.w3.org/2000/svg">
<path d="M28.1789 4.14035H25.9289V1.24749C25.9289 0.713114 25.499 0.283203 24.9646 0.283203H1.17889C0.64451 0.283203 0.2146 0.713114 0.2146 1.24749V12.1761C0.2146 12.7104 0.64451 13.1403 1.17889 13.1403H24.9646C25.499 13.1403 25.9289 12.7104 25.9289 12.1761V6.71177H27.2146V14.7475H13.1119C12.224 14.7475 11.5048 15.4667 11.5048 16.3546V21.8189H9.73692C9.56014 21.8189 9.41549 21.9636 9.41549 22.1403V31.3011C9.41549 31.3252 9.41951 31.3533 9.42353 31.3774C9.38978 31.8401 9.4518 32.3048 9.60573 32.7425C9.75966 33.1802 10.0022 33.5814 10.3182 33.9211C10.6341 34.2609 11.0168 34.5318 11.4421 34.717C11.8675 34.9022 12.3265 34.9977 12.7905 34.9975C14.6548 34.9975 16.1655 33.4868 16.1655 31.6225C16.1655 31.5381 16.1615 31.4578 16.1575 31.3774C16.1615 31.3533 16.1655 31.3292 16.1655 31.3011V22.1403C16.1655 21.9636 16.0209 21.8189 15.8441 21.8189H14.0762V17.3189H28.1789C29.0668 17.3189 29.786 16.5997 29.786 15.7118V5.74749C29.786 4.85954 29.0668 4.14035 28.1789 4.14035ZM23.3575 10.5689H2.78603V2.85463H23.3575V10.5689ZM13.5941 31.6225C13.5941 32.0645 13.2325 32.4261 12.7905 32.4261C12.3485 32.4261 11.9869 32.0645 11.9869 31.6225V24.3903H13.5941V31.6225Z" fill="black" fill-opacity="0.85"/>
</svg>
