<svg width="26" height="31" viewBox="0 0 26 31" fill="none" xmlns="http://www.w3.org/2000/svg">
<path d="M24.5312 3.75H22.5625V1.21875C22.5625 0.751172 22.1863 0.375 21.7188 0.375H0.90625C0.438672 0.375 0.0625 0.751172 0.0625 1.21875V10.7812C0.0625 11.2488 0.438672 11.625 0.90625 11.625H21.7188C22.1863 11.625 22.5625 11.2488 22.5625 10.7812V6H23.6875V13.0312H11.3477C10.5707 13.0312 9.94141 13.6605 9.94141 14.4375V19.2188H8.39453C8.23984 19.2188 8.11328 19.3453 8.11328 19.5V27.5156C8.11328 27.5543 8.12031 27.593 8.13438 27.6246C8.12031 27.6809 8.11328 27.7371 8.11328 27.7969C8.11328 29.4281 9.43516 30.75 11.0664 30.75C12.6977 30.75 14.0195 29.4281 14.0195 27.7969C14.0195 27.7371 14.0125 27.6809 13.9984 27.6246C14.0125 27.5895 14.0195 27.5543 14.0195 27.5156V19.5C14.0195 19.3453 13.893 19.2188 13.7383 19.2188H12.1914V15.2812H24.5312C25.3082 15.2812 25.9375 14.652 25.9375 13.875V5.15625C25.9375 4.3793 25.3082 3.75 24.5312 3.75Z" fill="black" fill-opacity="0.85"/>
</svg>
